<?xml version="1.0" encoding="UTF-8"?>
<svg xmlns="http://www.w3.org/2000/svg" xmlns:xlink="http://www.w3.org/1999/xlink" width="1000pt" height="1000pt" viewBox="0 0 1000 1000" version="1.1">
<g id="surface1">
<rect x="0" y="0" width="1000" height="1000" style="fill:rgb(80%,80%,80%);fill-opacity:0.2;stroke:none;"/>
<path style=" stroke:none;fill-rule:nonzero;fill:rgb(0%,30%,80%);fill-opacity:0.4;" d="M 387.5 405.816406 C 387.5 412.71875 381.902344 418.316406 375 418.316406 C 368.097656 418.316406 362.5 412.71875 362.5 405.816406 C 362.5 398.914062 368.097656 393.316406 375 393.316406 C 381.902344 393.316406 387.5 398.914062 387.5 405.816406 "/>
<path style=" stroke:none;fill-rule:nonzero;fill:rgb(0%,30%,80%);fill-opacity:0.4;" d="M 287.5 300 C 287.5 306.902344 281.902344 312.5 275 312.5 C 268.097656 312.5 262.5 306.902344 262.5 300 C 262.5 293.097656 268.097656 287.5 275 287.5 C 281.902344 287.5 287.5 293.097656 287.5 300 "/>
<path style=" stroke:none;fill-rule:nonzero;fill:rgb(0%,30%,80%);fill-opacity:0.4;" d="M 401.980469 375 C 401.980469 381.902344 396.386719 387.5 389.480469 387.5 C 382.578125 387.5 376.980469 381.902344 376.980469 375 C 376.980469 368.097656 382.578125 362.5 389.480469 362.5 C 396.386719 362.5 401.980469 368.097656 401.980469 375 "/>
<path style=" stroke:none;fill-rule:nonzero;fill:rgb(0%,30%,80%);fill-opacity:0.4;" d="M 312.5 275 C 312.5 281.902344 306.902344 287.5 300 287.5 C 293.097656 287.5 287.5 281.902344 287.5 275 C 287.5 268.097656 293.097656 262.5 300 262.5 C 306.902344 262.5 312.5 268.097656 312.5 275 "/>
<path style=" stroke:none;fill-rule:nonzero;fill:rgb(0%,30%,80%);fill-opacity:0.4;" d="M 422.972656 375 C 422.972656 381.902344 417.375 387.5 410.472656 387.5 C 403.566406 387.5 397.972656 381.902344 397.972656 375 C 397.972656 368.097656 403.566406 362.5 410.472656 362.5 C 417.375 362.5 422.972656 368.097656 422.972656 375 "/>
<path style=" stroke:none;fill-rule:nonzero;fill:rgb(0%,30%,80%);fill-opacity:0.4;" d="M 362.5 275 C 362.5 281.902344 356.902344 287.5 350 287.5 C 343.097656 287.5 337.5 281.902344 337.5 275 C 337.5 268.097656 343.097656 262.5 350 262.5 C 356.902344 262.5 362.5 268.097656 362.5 275 "/>
<path style=" stroke:none;fill-rule:nonzero;fill:rgb(0%,30%,80%);fill-opacity:0.4;" d="M 444.539062 375 C 444.539062 381.902344 438.941406 387.5 432.039062 387.5 C 425.132812 387.5 419.539062 381.902344 419.539062 375 C 419.539062 368.097656 425.132812 362.5 432.039062 362.5 C 438.941406 362.5 444.539062 368.097656 444.539062 375 "/>
<path style=" stroke:none;fill-rule:nonzero;fill:rgb(0%,30%,80%);fill-opacity:0.4;" d="M 387.5 275 C 387.5 281.902344 381.902344 287.5 375 287.5 C 368.097656 287.5 362.5 281.902344 362.5 275 C 362.5 268.097656 368.097656 262.5 375 262.5 C 381.902344 262.5 387.5 268.097656 387.5 275 "/>
<path style=" stroke:none;fill-rule:nonzero;fill:rgb(0%,30%,80%);fill-opacity:0.4;" d="M 462.117188 375 C 462.117188 381.902344 456.519531 387.5 449.617188 387.5 C 442.714844 387.5 437.117188 381.902344 437.117188 375 C 437.117188 368.097656 442.714844 362.5 449.617188 362.5 C 456.519531 362.5 462.117188 368.097656 462.117188 375 "/>
<path style=" stroke:none;fill-rule:nonzero;fill:rgb(0%,30%,80%);fill-opacity:0.4;" d="M 412.5 275 C 412.5 281.902344 406.902344 287.5 400 287.5 C 393.097656 287.5 387.5 281.902344 387.5 275 C 387.5 268.097656 393.097656 262.5 400 262.5 C 406.902344 262.5 412.5 268.097656 412.5 275 "/>
<path style=" stroke:none;fill-rule:nonzero;fill:rgb(0%,30%,80%);fill-opacity:0.4;" d="M 478.75 375 C 478.75 381.902344 473.152344 387.5 466.25 387.5 C 459.34375 387.5 453.75 381.902344 453.75 375 C 453.75 368.097656 459.34375 362.5 466.25 362.5 C 473.152344 362.5 478.75 368.097656 478.75 375 "/>
<path style=" stroke:none;fill-rule:nonzero;fill:rgb(0%,30%,80%);fill-opacity:0.4;" d="M 437.5 275 C 437.5 281.902344 431.902344 287.5 425 287.5 C 418.097656 287.5 412.5 281.902344 412.5 275 C 412.5 268.097656 418.097656 262.5 425 262.5 C 431.902344 262.5 437.5 268.097656 437.5 275 "/>
<path style=" stroke:none;fill-rule:nonzero;fill:rgb(0%,30%,80%);fill-opacity:0.4;" d="M 496.226562 375 C 496.226562 381.902344 490.632812 387.5 483.726562 387.5 C 476.824219 387.5 471.226562 381.902344 471.226562 375 C 471.226562 368.097656 476.824219 362.5 483.726562 362.5 C 490.632812 362.5 496.226562 368.097656 496.226562 375 "/>
<path style=" stroke:none;fill-rule:nonzero;fill:rgb(0%,30%,80%);fill-opacity:0.4;" d="M 462.5 275 C 462.5 281.902344 456.902344 287.5 450 287.5 C 443.097656 287.5 437.5 281.902344 437.5 275 C 437.5 268.097656 443.097656 262.5 450 262.5 C 456.902344 262.5 462.5 268.097656 462.5 275 "/>
<path style=" stroke:none;fill-rule:nonzero;fill:rgb(0%,30%,80%);fill-opacity:0.4;" d="M 512.125 375 C 512.125 381.902344 506.527344 387.5 499.625 387.5 C 492.722656 387.5 487.125 381.902344 487.125 375 C 487.125 368.097656 492.722656 362.5 499.625 362.5 C 506.527344 362.5 512.125 368.097656 512.125 375 "/>
<path style=" stroke:none;fill-rule:nonzero;fill:rgb(0%,30%,80%);fill-opacity:0.4;" d="M 562.5 275 C 562.5 281.902344 556.902344 287.5 550 287.5 C 543.097656 287.5 537.5 281.902344 537.5 275 C 537.5 268.097656 543.097656 262.5 550 262.5 C 556.902344 262.5 562.5 268.097656 562.5 275 "/>
<path style=" stroke:none;fill-rule:nonzero;fill:rgb(0%,30%,80%);fill-opacity:0.4;" d="M 528.046875 375 C 528.046875 381.902344 522.449219 387.5 515.546875 387.5 C 508.640625 387.5 503.046875 381.902344 503.046875 375 C 503.046875 368.097656 508.640625 362.5 515.546875 362.5 C 522.449219 362.5 528.046875 368.097656 528.046875 375 "/>
<path style=" stroke:none;fill-rule:nonzero;fill:rgb(0%,30%,80%);fill-opacity:0.4;" d="M 587.5 275 C 587.5 281.902344 581.902344 287.5 575 287.5 C 568.097656 287.5 562.5 281.902344 562.5 275 C 562.5 268.097656 568.097656 262.5 575 262.5 C 581.902344 262.5 587.5 268.097656 587.5 275 "/>
<path style=" stroke:none;fill-rule:nonzero;fill:rgb(0%,30%,80%);fill-opacity:0.4;" d="M 544.382812 375 C 544.382812 381.902344 538.789062 387.5 531.882812 387.5 C 524.980469 387.5 519.382812 381.902344 519.382812 375 C 519.382812 368.097656 524.980469 362.5 531.882812 362.5 C 538.789062 362.5 544.382812 368.097656 544.382812 375 "/>
<path style=" stroke:none;fill-rule:nonzero;fill:rgb(0%,30%,80%);fill-opacity:0.4;" d="M 612.5 275 C 612.5 281.902344 606.902344 287.5 600 287.5 C 593.097656 287.5 587.5 281.902344 587.5 275 C 587.5 268.097656 593.097656 262.5 600 262.5 C 606.902344 262.5 612.5 268.097656 612.5 275 "/>
<path style=" stroke:none;fill-rule:nonzero;fill:rgb(0%,30%,80%);fill-opacity:0.4;" d="M 561 375 C 561 381.902344 555.402344 387.5 548.5 387.5 C 541.59375 387.5 536 381.902344 536 375 C 536 368.097656 541.59375 362.5 548.5 362.5 C 555.402344 362.5 561 368.097656 561 375 "/>
<path style=" stroke:none;fill-rule:nonzero;fill:rgb(0%,30%,80%);fill-opacity:0.4;" d="M 637.5 275 C 637.5 281.902344 631.902344 287.5 625 287.5 C 618.097656 287.5 612.5 281.902344 612.5 275 C 612.5 268.097656 618.097656 262.5 625 262.5 C 631.902344 262.5 637.5 268.097656 637.5 275 "/>
<path style=" stroke:none;fill-rule:nonzero;fill:rgb(0%,30%,80%);fill-opacity:0.4;" d="M 578.648438 375 C 578.648438 381.902344 573.054688 387.5 566.148438 387.5 C 559.246094 387.5 553.648438 381.902344 553.648438 375 C 553.648438 368.097656 559.246094 362.5 566.148438 362.5 C 573.054688 362.5 578.648438 368.097656 578.648438 375 "/>
<path style=" stroke:none;fill-rule:nonzero;fill:rgb(0%,30%,80%);fill-opacity:0.4;" d="M 662.5 275 C 662.5 281.902344 656.902344 287.5 650 287.5 C 643.097656 287.5 637.5 281.902344 637.5 275 C 637.5 268.097656 643.097656 262.5 650 262.5 C 656.902344 262.5 662.5 268.097656 662.5 275 "/>
<path style=" stroke:none;fill-rule:nonzero;fill:rgb(0%,30%,80%);fill-opacity:0.4;" d="M 596.613281 375 C 596.613281 381.902344 591.015625 387.5 584.113281 387.5 C 577.210938 387.5 571.613281 381.902344 571.613281 375 C 571.613281 368.097656 577.210938 362.5 584.113281 362.5 C 591.015625 362.5 596.613281 368.097656 596.613281 375 "/>
<path style=" stroke:none;fill-rule:nonzero;fill:rgb(0%,30%,80%);fill-opacity:0.4;" d="M 712.5 275 C 712.5 281.902344 706.902344 287.5 700 287.5 C 693.097656 287.5 687.5 281.902344 687.5 275 C 687.5 268.097656 693.097656 262.5 700 262.5 C 706.902344 262.5 712.5 268.097656 712.5 275 "/>
<path style=" stroke:none;fill-rule:nonzero;fill:rgb(0%,30%,80%);fill-opacity:0.4;" d="M 621.628906 375 C 621.628906 381.902344 616.03125 387.5 609.128906 387.5 C 602.226562 387.5 596.628906 381.902344 596.628906 375 C 596.628906 368.097656 602.226562 362.5 609.128906 362.5 C 616.03125 362.5 621.628906 368.097656 621.628906 375 "/>
<path style=" stroke:none;fill-rule:nonzero;fill:rgb(0%,30%,80%);fill-opacity:0.4;" d="M 737.5 275 C 737.5 281.902344 731.902344 287.5 725 287.5 C 718.097656 287.5 712.5 281.902344 712.5 275 C 712.5 268.097656 718.097656 262.5 725 262.5 C 731.902344 262.5 737.5 268.097656 737.5 275 "/>
<path style=" stroke:none;fill-rule:nonzero;fill:rgb(0%,30%,80%);fill-opacity:0.4;" d="M 637.5 390.691406 C 637.5 397.59375 631.902344 403.191406 625 403.191406 C 618.097656 403.191406 612.5 397.59375 612.5 390.691406 C 612.5 383.789062 618.097656 378.191406 625 378.191406 C 631.902344 378.191406 637.5 383.789062 637.5 390.691406 "/>
<path style=" stroke:none;fill-rule:nonzero;fill:rgb(0%,30%,80%);fill-opacity:0.4;" d="M 737.5 300 C 737.5 306.902344 731.902344 312.5 725 312.5 C 718.097656 312.5 712.5 306.902344 712.5 300 C 712.5 293.097656 718.097656 287.5 725 287.5 C 731.902344 287.5 737.5 293.097656 737.5 300 "/>
<path style=" stroke:none;fill-rule:nonzero;fill:rgb(0%,30%,80%);fill-opacity:0.4;" d="M 637.5 405.046875 C 637.5 411.949219 631.902344 417.546875 625 417.546875 C 618.097656 417.546875 612.5 411.949219 612.5 405.046875 C 612.5 398.144531 618.097656 392.546875 625 392.546875 C 631.902344 392.546875 637.5 398.144531 637.5 405.046875 "/>
<path style=" stroke:none;fill-rule:nonzero;fill:rgb(0%,30%,80%);fill-opacity:0.4;" d="M 737.5 350 C 737.5 356.902344 731.902344 362.5 725 362.5 C 718.097656 362.5 712.5 356.902344 712.5 350 C 712.5 343.097656 718.097656 337.5 725 337.5 C 731.902344 337.5 737.5 343.097656 737.5 350 "/>
<path style=" stroke:none;fill-rule:nonzero;fill:rgb(0%,30%,80%);fill-opacity:0.4;" d="M 637.5 423.933594 C 637.5 430.835938 631.902344 436.433594 625 436.433594 C 618.097656 436.433594 612.5 430.835938 612.5 423.933594 C 612.5 417.027344 618.097656 411.433594 625 411.433594 C 631.902344 411.433594 637.5 417.027344 637.5 423.933594 "/>
<path style=" stroke:none;fill-rule:nonzero;fill:rgb(0%,30%,80%);fill-opacity:0.4;" d="M 737.5 375 C 737.5 381.902344 731.902344 387.5 725 387.5 C 718.097656 387.5 712.5 381.902344 712.5 375 C 712.5 368.097656 718.097656 362.5 725 362.5 C 731.902344 362.5 737.5 368.097656 737.5 375 "/>
<path style=" stroke:none;fill-rule:nonzero;fill:rgb(0%,30%,80%);fill-opacity:0.4;" d="M 637.5 442.347656 C 637.5 449.253906 631.902344 454.847656 625 454.847656 C 618.097656 454.847656 612.5 449.253906 612.5 442.347656 C 612.5 435.445312 618.097656 429.847656 625 429.847656 C 631.902344 429.847656 637.5 435.445312 637.5 442.347656 "/>
<path style=" stroke:none;fill-rule:nonzero;fill:rgb(0%,30%,80%);fill-opacity:0.4;" d="M 737.5 400 C 737.5 406.902344 731.902344 412.5 725 412.5 C 718.097656 412.5 712.5 406.902344 712.5 400 C 712.5 393.097656 718.097656 387.5 725 387.5 C 731.902344 387.5 737.5 393.097656 737.5 400 "/>
<path style=" stroke:none;fill-rule:nonzero;fill:rgb(0%,30%,80%);fill-opacity:0.4;" d="M 637.5 466.265625 C 637.5 473.171875 631.902344 478.765625 625 478.765625 C 618.097656 478.765625 612.5 473.171875 612.5 466.265625 C 612.5 459.363281 618.097656 453.765625 625 453.765625 C 631.902344 453.765625 637.5 459.363281 637.5 466.265625 "/>
<path style=" stroke:none;fill-rule:nonzero;fill:rgb(0%,30%,80%);fill-opacity:0.4;" d="M 737.5 425 C 737.5 431.902344 731.902344 437.5 725 437.5 C 718.097656 437.5 712.5 431.902344 712.5 425 C 712.5 418.097656 718.097656 412.5 725 412.5 C 731.902344 412.5 737.5 418.097656 737.5 425 "/>
<path style=" stroke:none;fill-rule:nonzero;fill:rgb(0%,30%,80%);fill-opacity:0.4;" d="M 637.5 482.789062 C 637.5 489.691406 631.902344 495.289062 625 495.289062 C 618.097656 495.289062 612.5 489.691406 612.5 482.789062 C 612.5 475.882812 618.097656 470.289062 625 470.289062 C 631.902344 470.289062 637.5 475.882812 637.5 482.789062 "/>
<path style=" stroke:none;fill-rule:nonzero;fill:rgb(0%,30%,80%);fill-opacity:0.4;" d="M 737.5 450 C 737.5 456.902344 731.902344 462.5 725 462.5 C 718.097656 462.5 712.5 456.902344 712.5 450 C 712.5 443.097656 718.097656 437.5 725 437.5 C 731.902344 437.5 737.5 443.097656 737.5 450 "/>
<path style=" stroke:none;fill-rule:nonzero;fill:rgb(0%,30%,80%);fill-opacity:0.4;" d="M 637.5 498.78125 C 637.5 505.6875 631.902344 511.28125 625 511.28125 C 618.097656 511.28125 612.5 505.6875 612.5 498.78125 C 612.5 491.878906 618.097656 486.28125 625 486.28125 C 631.902344 486.28125 637.5 491.878906 637.5 498.78125 "/>
<path style=" stroke:none;fill-rule:nonzero;fill:rgb(0%,30%,80%);fill-opacity:0.4;" d="M 737.5 550 C 737.5 556.902344 731.902344 562.5 725 562.5 C 718.097656 562.5 712.5 556.902344 712.5 550 C 712.5 543.097656 718.097656 537.5 725 537.5 C 731.902344 537.5 737.5 543.097656 737.5 550 "/>
<path style=" stroke:none;fill-rule:nonzero;fill:rgb(0%,30%,80%);fill-opacity:0.4;" d="M 637.5 514.648438 C 637.5 521.554688 631.902344 527.148438 625 527.148438 C 618.097656 527.148438 612.5 521.554688 612.5 514.648438 C 612.5 507.746094 618.097656 502.148438 625 502.148438 C 631.902344 502.148438 637.5 507.746094 637.5 514.648438 "/>
<path style=" stroke:none;fill-rule:nonzero;fill:rgb(0%,30%,80%);fill-opacity:0.4;" d="M 737.5 575 C 737.5 581.902344 731.902344 587.5 725 587.5 C 718.097656 587.5 712.5 581.902344 712.5 575 C 712.5 568.097656 718.097656 562.5 725 562.5 C 731.902344 562.5 737.5 568.097656 737.5 575 "/>
<path style=" stroke:none;fill-rule:nonzero;fill:rgb(0%,30%,80%);fill-opacity:0.4;" d="M 637.5 530.699219 C 637.5 537.605469 631.902344 543.199219 625 543.199219 C 618.097656 543.199219 612.5 537.605469 612.5 530.699219 C 612.5 523.796875 618.097656 518.199219 625 518.199219 C 631.902344 518.199219 637.5 523.796875 637.5 530.699219 "/>
<path style=" stroke:none;fill-rule:nonzero;fill:rgb(0%,30%,80%);fill-opacity:0.4;" d="M 737.5 600 C 737.5 606.902344 731.902344 612.5 725 612.5 C 718.097656 612.5 712.5 606.902344 712.5 600 C 712.5 593.097656 718.097656 587.5 725 587.5 C 731.902344 587.5 737.5 593.097656 737.5 600 "/>
<path style=" stroke:none;fill-rule:nonzero;fill:rgb(0%,30%,80%);fill-opacity:0.4;" d="M 637.5 546.992188 C 637.5 553.898438 631.902344 559.492188 625 559.492188 C 618.097656 559.492188 612.5 553.898438 612.5 546.992188 C 612.5 540.089844 618.097656 534.492188 625 534.492188 C 631.902344 534.492188 637.5 540.089844 637.5 546.992188 "/>
<path style=" stroke:none;fill-rule:nonzero;fill:rgb(0%,30%,80%);fill-opacity:0.4;" d="M 737.5 625 C 737.5 631.902344 731.902344 637.5 725 637.5 C 718.097656 637.5 712.5 631.902344 712.5 625 C 712.5 618.097656 718.097656 612.5 725 612.5 C 731.902344 612.5 737.5 618.097656 737.5 625 "/>
<path style=" stroke:none;fill-rule:nonzero;fill:rgb(0%,30%,80%);fill-opacity:0.4;" d="M 637.5 563.992188 C 637.5 570.894531 631.902344 576.492188 625 576.492188 C 618.097656 576.492188 612.5 570.894531 612.5 563.992188 C 612.5 557.089844 618.097656 551.492188 625 551.492188 C 631.902344 551.492188 637.5 557.089844 637.5 563.992188 "/>
<path style=" stroke:none;fill-rule:nonzero;fill:rgb(0%,30%,80%);fill-opacity:0.4;" d="M 737.5 650 C 737.5 656.902344 731.902344 662.5 725 662.5 C 718.097656 662.5 712.5 656.902344 712.5 650 C 712.5 643.097656 718.097656 637.5 725 637.5 C 731.902344 637.5 737.5 643.097656 737.5 650 "/>
<path style=" stroke:none;fill-rule:nonzero;fill:rgb(0%,30%,80%);fill-opacity:0.4;" d="M 637.5 584.609375 C 637.5 591.515625 631.902344 597.109375 625 597.109375 C 618.097656 597.109375 612.5 591.515625 612.5 584.609375 C 612.5 577.707031 618.097656 572.109375 625 572.109375 C 631.902344 572.109375 637.5 577.707031 637.5 584.609375 "/>
<path style=" stroke:none;fill-rule:nonzero;fill:rgb(0%,30%,80%);fill-opacity:0.4;" d="M 737.5 700 C 737.5 706.902344 731.902344 712.5 725 712.5 C 718.097656 712.5 712.5 706.902344 712.5 700 C 712.5 693.097656 718.097656 687.5 725 687.5 C 731.902344 687.5 737.5 693.097656 737.5 700 "/>
<path style=" stroke:none;fill-rule:nonzero;fill:rgb(0%,30%,80%);fill-opacity:0.4;" d="M 634.667969 620.421875 C 634.667969 627.328125 629.070312 632.921875 622.167969 632.921875 C 615.265625 632.921875 609.667969 627.328125 609.667969 620.421875 C 609.667969 613.519531 615.265625 607.921875 622.167969 607.921875 C 629.070312 607.921875 634.667969 613.519531 634.667969 620.421875 "/>
<path style=" stroke:none;fill-rule:nonzero;fill:rgb(0%,30%,80%);fill-opacity:0.4;" d="M 737.5 725 C 737.5 731.902344 731.902344 737.5 725 737.5 C 718.097656 737.5 712.5 731.902344 712.5 725 C 712.5 718.097656 718.097656 712.5 725 712.5 C 731.902344 712.5 737.5 718.097656 737.5 725 "/>
<path style=" stroke:none;fill-rule:nonzero;fill:rgb(0%,30%,80%);fill-opacity:0.4;" d="M 623.21875 625 C 623.21875 631.902344 617.621094 637.5 610.71875 637.5 C 603.8125 637.5 598.21875 631.902344 598.21875 625 C 598.21875 618.097656 603.8125 612.5 610.71875 612.5 C 617.621094 612.5 623.21875 618.097656 623.21875 625 "/>
<path style=" stroke:none;fill-rule:nonzero;fill:rgb(0%,30%,80%);fill-opacity:0.4;" d="M 712.5 725 C 712.5 731.902344 706.902344 737.5 700 737.5 C 693.097656 737.5 687.5 731.902344 687.5 725 C 687.5 718.097656 693.097656 712.5 700 712.5 C 706.902344 712.5 712.5 718.097656 712.5 725 "/>
<path style=" stroke:none;fill-rule:nonzero;fill:rgb(0%,30%,80%);fill-opacity:0.4;" d="M 608.234375 625 C 608.234375 631.902344 602.640625 637.5 595.734375 637.5 C 588.832031 637.5 583.234375 631.902344 583.234375 625 C 583.234375 618.097656 588.832031 612.5 595.734375 612.5 C 602.640625 612.5 608.234375 618.097656 608.234375 625 "/>
<path style=" stroke:none;fill-rule:nonzero;fill:rgb(0%,30%,80%);fill-opacity:0.4;" d="M 662.5 725 C 662.5 731.902344 656.902344 737.5 650 737.5 C 643.097656 737.5 637.5 731.902344 637.5 725 C 637.5 718.097656 643.097656 712.5 650 712.5 C 656.902344 712.5 662.5 718.097656 662.5 725 "/>
<path style=" stroke:none;fill-rule:nonzero;fill:rgb(0%,30%,80%);fill-opacity:0.4;" d="M 583.996094 625 C 583.996094 631.902344 578.398438 637.5 571.496094 637.5 C 564.59375 637.5 558.996094 631.902344 558.996094 625 C 558.996094 618.097656 564.59375 612.5 571.496094 612.5 C 578.398438 612.5 583.996094 618.097656 583.996094 625 "/>
<path style=" stroke:none;fill-rule:nonzero;fill:rgb(0%,30%,80%);fill-opacity:0.4;" d="M 637.5 725 C 637.5 731.902344 631.902344 737.5 625 737.5 C 618.097656 737.5 612.5 731.902344 612.5 725 C 612.5 718.097656 618.097656 712.5 625 712.5 C 631.902344 712.5 637.5 718.097656 637.5 725 "/>
<path style=" stroke:none;fill-rule:nonzero;fill:rgb(0%,30%,80%);fill-opacity:0.4;" d="M 566.386719 625 C 566.386719 631.902344 560.789062 637.5 553.886719 637.5 C 546.984375 637.5 541.386719 631.902344 541.386719 625 C 541.386719 618.097656 546.984375 612.5 553.886719 612.5 C 560.789062 612.5 566.386719 618.097656 566.386719 625 "/>
<path style=" stroke:none;fill-rule:nonzero;fill:rgb(0%,30%,80%);fill-opacity:0.4;" d="M 612.5 725 C 612.5 731.902344 606.902344 737.5 600 737.5 C 593.097656 737.5 587.5 731.902344 587.5 725 C 587.5 718.097656 593.097656 712.5 600 712.5 C 606.902344 712.5 612.5 718.097656 612.5 725 "/>
<path style=" stroke:none;fill-rule:nonzero;fill:rgb(0%,30%,80%);fill-opacity:0.4;" d="M 549.640625 625 C 549.640625 631.902344 544.042969 637.5 537.140625 637.5 C 530.238281 637.5 524.640625 631.902344 524.640625 625 C 524.640625 618.097656 530.238281 612.5 537.140625 612.5 C 544.042969 612.5 549.640625 618.097656 549.640625 625 "/>
<path style=" stroke:none;fill-rule:nonzero;fill:rgb(0%,30%,80%);fill-opacity:0.4;" d="M 587.5 725 C 587.5 731.902344 581.902344 737.5 575 737.5 C 568.097656 737.5 562.5 731.902344 562.5 725 C 562.5 718.097656 568.097656 712.5 575 712.5 C 581.902344 712.5 587.5 718.097656 587.5 725 "/>
<path style=" stroke:none;fill-rule:nonzero;fill:rgb(0%,30%,80%);fill-opacity:0.4;" d="M 533.34375 625 C 533.34375 631.902344 527.746094 637.5 520.84375 637.5 C 513.941406 637.5 508.34375 631.902344 508.34375 625 C 508.34375 618.097656 513.941406 612.5 520.84375 612.5 C 527.746094 612.5 533.34375 618.097656 533.34375 625 "/>
<path style=" stroke:none;fill-rule:nonzero;fill:rgb(0%,30%,80%);fill-opacity:0.4;" d="M 562.5 725 C 562.5 731.902344 556.902344 737.5 550 737.5 C 543.097656 737.5 537.5 731.902344 537.5 725 C 537.5 718.097656 543.097656 712.5 550 712.5 C 556.902344 712.5 562.5 718.097656 562.5 725 "/>
<path style=" stroke:none;fill-rule:nonzero;fill:rgb(0%,30%,80%);fill-opacity:0.4;" d="M 517.363281 625 C 517.363281 631.902344 511.765625 637.5 504.863281 637.5 C 497.960938 637.5 492.363281 631.902344 492.363281 625 C 492.363281 618.097656 497.960938 612.5 504.863281 612.5 C 511.765625 612.5 517.363281 618.097656 517.363281 625 "/>
<path style=" stroke:none;fill-rule:nonzero;fill:rgb(0%,30%,80%);fill-opacity:0.4;" d="M 462.5 725 C 462.5 731.902344 456.902344 737.5 450 737.5 C 443.097656 737.5 437.5 731.902344 437.5 725 C 437.5 718.097656 443.097656 712.5 450 712.5 C 456.902344 712.5 462.5 718.097656 462.5 725 "/>
<path style=" stroke:none;fill-rule:nonzero;fill:rgb(0%,30%,80%);fill-opacity:0.4;" d="M 501.503906 625 C 501.503906 631.902344 495.90625 637.5 489.003906 637.5 C 482.101562 637.5 476.503906 631.902344 476.503906 625 C 476.503906 618.097656 482.101562 612.5 489.003906 612.5 C 495.90625 612.5 501.503906 618.097656 501.503906 625 "/>
<path style=" stroke:none;fill-rule:nonzero;fill:rgb(0%,30%,80%);fill-opacity:0.4;" d="M 437.5 725 C 437.5 731.902344 431.902344 737.5 425 737.5 C 418.097656 737.5 412.5 731.902344 412.5 725 C 412.5 718.097656 418.097656 712.5 425 712.5 C 431.902344 712.5 437.5 718.097656 437.5 725 "/>
<path style=" stroke:none;fill-rule:nonzero;fill:rgb(0%,30%,80%);fill-opacity:0.4;" d="M 412.5 725 C 412.5 731.902344 406.902344 737.5 400 737.5 C 393.097656 737.5 387.5 731.902344 387.5 725 C 387.5 718.097656 393.097656 712.5 400 712.5 C 406.902344 712.5 412.5 718.097656 412.5 725 "/>
<path style=" stroke:none;fill-rule:nonzero;fill:rgb(0%,30%,80%);fill-opacity:0.4;" d="M 485.367188 625 C 485.367188 631.902344 479.769531 637.5 472.867188 637.5 C 465.964844 637.5 460.367188 631.902344 460.367188 625 C 460.367188 618.097656 465.964844 612.5 472.867188 612.5 C 479.769531 612.5 485.367188 618.097656 485.367188 625 "/>
<path style=" stroke:none;fill-rule:nonzero;fill:rgb(0%,30%,80%);fill-opacity:0.4;" d="M 467.644531 625 C 467.644531 631.902344 462.046875 637.5 455.144531 637.5 C 448.238281 637.5 442.644531 631.902344 442.644531 625 C 442.644531 618.097656 448.238281 612.5 455.144531 612.5 C 462.046875 612.5 467.644531 618.097656 467.644531 625 "/>
<path style=" stroke:none;fill-rule:nonzero;fill:rgb(0%,30%,80%);fill-opacity:0.4;" d="M 387.5 725 C 387.5 731.902344 381.902344 737.5 375 737.5 C 368.097656 737.5 362.5 731.902344 362.5 725 C 362.5 718.097656 368.097656 712.5 375 712.5 C 381.902344 712.5 387.5 718.097656 387.5 725 "/>
<path style=" stroke:none;fill-rule:nonzero;fill:rgb(0%,30%,80%);fill-opacity:0.4;" d="M 450.261719 625 C 450.261719 631.902344 444.664062 637.5 437.761719 637.5 C 430.855469 637.5 425.261719 631.902344 425.261719 625 C 425.261719 618.097656 430.855469 612.5 437.761719 612.5 C 444.664062 612.5 450.261719 618.097656 450.261719 625 "/>
<path style=" stroke:none;fill-rule:nonzero;fill:rgb(0%,30%,80%);fill-opacity:0.4;" d="M 362.5 725 C 362.5 731.902344 356.902344 737.5 350 737.5 C 343.097656 737.5 337.5 731.902344 337.5 725 C 337.5 718.097656 343.097656 712.5 350 712.5 C 356.902344 712.5 362.5 718.097656 362.5 725 "/>
<path style=" stroke:none;fill-rule:nonzero;fill:rgb(0%,30%,80%);fill-opacity:0.4;" d="M 432.316406 625 C 432.316406 631.902344 426.71875 637.5 419.816406 637.5 C 412.914062 637.5 407.316406 631.902344 407.316406 625 C 407.316406 618.097656 412.914062 612.5 419.816406 612.5 C 426.71875 612.5 432.316406 618.097656 432.316406 625 "/>
<path style=" stroke:none;fill-rule:nonzero;fill:rgb(0%,30%,80%);fill-opacity:0.4;" d="M 312.5 725 C 312.5 731.902344 306.902344 737.5 300 737.5 C 293.097656 737.5 287.5 731.902344 287.5 725 C 287.5 718.097656 293.097656 712.5 300 712.5 C 306.902344 712.5 312.5 718.097656 312.5 725 "/>
<path style=" stroke:none;fill-rule:nonzero;fill:rgb(0%,30%,80%);fill-opacity:0.4;" d="M 409.085938 625 C 409.085938 631.902344 403.492188 637.5 396.585938 637.5 C 389.683594 637.5 384.085938 631.902344 384.085938 625 C 384.085938 618.097656 389.683594 612.5 396.585938 612.5 C 403.492188 612.5 409.085938 618.097656 409.085938 625 "/>
<path style=" stroke:none;fill-rule:nonzero;fill:rgb(0%,30%,80%);fill-opacity:0.4;" d="M 287.5 725 C 287.5 731.902344 281.902344 737.5 275 737.5 C 268.097656 737.5 262.5 731.902344 262.5 725 C 262.5 718.097656 268.097656 712.5 275 712.5 C 281.902344 712.5 287.5 718.097656 287.5 725 "/>
<path style=" stroke:none;fill-rule:nonzero;fill:rgb(0%,30%,80%);fill-opacity:0.4;" d="M 387.75 614.988281 C 387.75 621.890625 382.152344 627.488281 375.25 627.488281 C 368.347656 627.488281 362.75 621.890625 362.75 614.988281 C 362.75 608.082031 368.347656 602.488281 375.25 602.488281 C 382.152344 602.488281 387.75 608.082031 387.75 614.988281 "/>
<path style=" stroke:none;fill-rule:nonzero;fill:rgb(0%,30%,80%);fill-opacity:0.4;" d="M 287.5 700 C 287.5 706.902344 281.902344 712.5 275 712.5 C 268.097656 712.5 262.5 706.902344 262.5 700 C 262.5 693.097656 268.097656 687.5 275 687.5 C 281.902344 687.5 287.5 693.097656 287.5 700 "/>
<path style=" stroke:none;fill-rule:nonzero;fill:rgb(0%,30%,80%);fill-opacity:0.4;" d="M 387.5 587.894531 C 387.5 594.796875 381.902344 600.394531 375 600.394531 C 368.097656 600.394531 362.5 594.796875 362.5 587.894531 C 362.5 580.992188 368.097656 575.394531 375 575.394531 C 381.902344 575.394531 387.5 580.992188 387.5 587.894531 "/>
<path style=" stroke:none;fill-rule:nonzero;fill:rgb(0%,30%,80%);fill-opacity:0.4;" d="M 287.5 650 C 287.5 656.902344 281.902344 662.5 275 662.5 C 268.097656 662.5 262.5 656.902344 262.5 650 C 262.5 643.097656 268.097656 637.5 275 637.5 C 281.902344 637.5 287.5 643.097656 287.5 650 "/>
<path style=" stroke:none;fill-rule:nonzero;fill:rgb(0%,30%,80%);fill-opacity:0.4;" d="M 387.5 569.761719 C 387.5 576.664062 381.902344 582.261719 375 582.261719 C 368.097656 582.261719 362.5 576.664062 362.5 569.761719 C 362.5 562.859375 368.097656 557.261719 375 557.261719 C 381.902344 557.261719 387.5 562.859375 387.5 569.761719 "/>
<path style=" stroke:none;fill-rule:nonzero;fill:rgb(0%,30%,80%);fill-opacity:0.4;" d="M 287.5 625 C 287.5 631.902344 281.902344 637.5 275 637.5 C 268.097656 637.5 262.5 631.902344 262.5 625 C 262.5 618.097656 268.097656 612.5 275 612.5 C 281.902344 612.5 287.5 618.097656 287.5 625 "/>
<path style=" stroke:none;fill-rule:nonzero;fill:rgb(0%,30%,80%);fill-opacity:0.4;" d="M 387.5 551.925781 C 387.5 558.832031 381.902344 564.425781 375 564.425781 C 368.097656 564.425781 362.5 558.832031 362.5 551.925781 C 362.5 545.023438 368.097656 539.425781 375 539.425781 C 381.902344 539.425781 387.5 545.023438 387.5 551.925781 "/>
<path style=" stroke:none;fill-rule:nonzero;fill:rgb(0%,30%,80%);fill-opacity:0.4;" d="M 287.5 600 C 287.5 606.902344 281.902344 612.5 275 612.5 C 268.097656 612.5 262.5 606.902344 262.5 600 C 262.5 593.097656 268.097656 587.5 275 587.5 C 281.902344 587.5 287.5 593.097656 287.5 600 "/>
<path style=" stroke:none;fill-rule:nonzero;fill:rgb(0%,30%,80%);fill-opacity:0.4;" d="M 387.578125 537.414062 C 387.578125 544.316406 381.984375 549.914062 375.078125 549.914062 C 368.175781 549.914062 362.578125 544.316406 362.578125 537.414062 C 362.578125 530.511719 368.175781 524.914062 375.078125 524.914062 C 381.984375 524.914062 387.578125 530.511719 387.578125 537.414062 "/>
<path style=" stroke:none;fill-rule:nonzero;fill:rgb(0%,30%,80%);fill-opacity:0.4;" d="M 287.5 575 C 287.5 581.902344 281.902344 587.5 275 587.5 C 268.097656 587.5 262.5 581.902344 262.5 575 C 262.5 568.097656 268.097656 562.5 275 562.5 C 281.902344 562.5 287.5 568.097656 287.5 575 "/>
<path style=" stroke:none;fill-rule:nonzero;fill:rgb(0%,30%,80%);fill-opacity:0.4;" d="M 387.5 517.675781 C 387.5 524.582031 381.902344 530.175781 375 530.175781 C 368.097656 530.175781 362.5 524.582031 362.5 517.675781 C 362.5 510.773438 368.097656 505.175781 375 505.175781 C 381.902344 505.175781 387.5 510.773438 387.5 517.675781 "/>
<path style=" stroke:none;fill-rule:nonzero;fill:rgb(0%,30%,80%);fill-opacity:0.4;" d="M 287.5 550 C 287.5 556.902344 281.902344 562.5 275 562.5 C 268.097656 562.5 262.5 556.902344 262.5 550 C 262.5 543.097656 268.097656 537.5 275 537.5 C 281.902344 537.5 287.5 543.097656 287.5 550 "/>
<path style=" stroke:none;fill-rule:nonzero;fill:rgb(0%,30%,80%);fill-opacity:0.4;" d="M 387.5 501.734375 C 387.5 508.640625 381.902344 514.234375 375 514.234375 C 368.097656 514.234375 362.5 508.640625 362.5 501.734375 C 362.5 494.832031 368.097656 489.234375 375 489.234375 C 381.902344 489.234375 387.5 494.832031 387.5 501.734375 "/>
<path style=" stroke:none;fill-rule:nonzero;fill:rgb(0%,30%,80%);fill-opacity:0.4;" d="M 287.5 450 C 287.5 456.902344 281.902344 462.5 275 462.5 C 268.097656 462.5 262.5 456.902344 262.5 450 C 262.5 443.097656 268.097656 437.5 275 437.5 C 281.902344 437.5 287.5 443.097656 287.5 450 "/>
<path style=" stroke:none;fill-rule:nonzero;fill:rgb(0%,30%,80%);fill-opacity:0.4;" d="M 387.5 485.859375 C 387.5 492.761719 381.902344 498.359375 375 498.359375 C 368.097656 498.359375 362.5 492.761719 362.5 485.859375 C 362.5 478.957031 368.097656 473.359375 375 473.359375 C 381.902344 473.359375 387.5 478.957031 387.5 485.859375 "/>
<path style=" stroke:none;fill-rule:nonzero;fill:rgb(0%,30%,80%);fill-opacity:0.4;" d="M 287.5 425 C 287.5 431.902344 281.902344 437.5 275 437.5 C 268.097656 437.5 262.5 431.902344 262.5 425 C 262.5 418.097656 268.097656 412.5 275 412.5 C 281.902344 412.5 287.5 418.097656 287.5 425 "/>
<path style=" stroke:none;fill-rule:nonzero;fill:rgb(0%,30%,80%);fill-opacity:0.4;" d="M 387.5 469.660156 C 387.5 476.566406 381.902344 482.160156 375 482.160156 C 368.097656 482.160156 362.5 476.566406 362.5 469.660156 C 362.5 462.757812 368.097656 457.160156 375 457.160156 C 381.902344 457.160156 387.5 462.757812 387.5 469.660156 "/>
<path style=" stroke:none;fill-rule:nonzero;fill:rgb(0%,30%,80%);fill-opacity:0.4;" d="M 287.5 400 C 287.5 406.902344 281.902344 412.5 275 412.5 C 268.097656 412.5 262.5 406.902344 262.5 400 C 262.5 393.097656 268.097656 387.5 275 387.5 C 281.902344 387.5 287.5 393.097656 287.5 400 "/>
<path style=" stroke:none;fill-rule:nonzero;fill:rgb(0%,30%,80%);fill-opacity:0.4;" d="M 387.5 453.25 C 387.5 460.152344 381.902344 465.75 375 465.75 C 368.097656 465.75 362.5 460.152344 362.5 453.25 C 362.5 446.34375 368.097656 440.75 375 440.75 C 381.902344 440.75 387.5 446.34375 387.5 453.25 "/>
<path style=" stroke:none;fill-rule:nonzero;fill:rgb(0%,30%,80%);fill-opacity:0.4;" d="M 287.5 375 C 287.5 381.902344 281.902344 387.5 275 387.5 C 268.097656 387.5 262.5 381.902344 262.5 375 C 262.5 368.097656 268.097656 362.5 275 362.5 C 281.902344 362.5 287.5 368.097656 287.5 375 "/>
<path style=" stroke:none;fill-rule:nonzero;fill:rgb(0%,30%,80%);fill-opacity:0.4;" d="M 387.5 435.949219 C 387.5 442.851562 381.902344 448.449219 375 448.449219 C 368.097656 448.449219 362.5 442.851562 362.5 435.949219 C 362.5 429.042969 368.097656 423.449219 375 423.449219 C 381.902344 423.449219 387.5 429.042969 387.5 435.949219 "/>
<path style=" stroke:none;fill-rule:nonzero;fill:rgb(0%,30%,80%);fill-opacity:0.4;" d="M 287.5 350 C 287.5 356.902344 281.902344 362.5 275 362.5 C 268.097656 362.5 262.5 356.902344 262.5 350 C 262.5 343.097656 268.097656 337.5 275 337.5 C 281.902344 337.5 287.5 343.097656 287.5 350 "/>
<path style=" stroke:none;fill-rule:nonzero;fill:rgb(0%,30%,80%);fill-opacity:0.4;" d="M 387.5 384.855469 C 387.5 391.757812 381.902344 397.355469 375 397.355469 C 368.097656 397.355469 362.5 391.757812 362.5 384.855469 C 362.5 377.953125 368.097656 372.355469 375 372.355469 C 381.902344 372.355469 387.5 377.953125 387.5 384.855469 "/>
<path style=" stroke:none;fill-rule:nonzero;fill:rgb(0%,30%,80%);fill-opacity:0.4;" d="M 287.5 275 C 287.5 281.902344 281.902344 287.5 275 287.5 C 268.097656 287.5 262.5 281.902344 262.5 275 C 262.5 268.097656 268.097656 262.5 275 262.5 C 281.902344 262.5 287.5 268.097656 287.5 275 "/>
</g>
</svg>
