<?xml version="1.0" encoding="UTF-8"?>
<svg xmlns="http://www.w3.org/2000/svg" xmlns:xlink="http://www.w3.org/1999/xlink" width="1000pt" height="1000pt" viewBox="0 0 1000 1000" version="1.1">
<g id="surface1">
<rect x="0" y="0" width="1000" height="1000" style="fill:rgb(80%,80%,80%);fill-opacity:0.2;stroke:none;"/>
<path style="fill:none;stroke-width:3;stroke-linecap:butt;stroke-linejoin:miter;stroke:rgb(30%,80%,0%);stroke-opacity:0.4;stroke-miterlimit:10;" d="M 375 405.816406 L 275 305.816406 "/>
<path style="fill:none;stroke-width:3;stroke-linecap:butt;stroke-linejoin:miter;stroke:rgb(30%,80%,0%);stroke-opacity:0.4;stroke-miterlimit:10;" d="M 275 305.816406 L 275 300 "/>
<path style="fill:none;stroke-width:3;stroke-linecap:butt;stroke-linejoin:miter;stroke:rgb(30%,80%,0%);stroke-opacity:0.4;stroke-miterlimit:10;" d="M 389.480469 375 L 389.480469 364.480469 "/>
<path style="fill:none;stroke-width:3;stroke-linecap:butt;stroke-linejoin:miter;stroke:rgb(30%,80%,0%);stroke-opacity:0.4;stroke-miterlimit:10;" d="M 389.480469 364.480469 L 300 275 "/>
<path style="fill:none;stroke-width:3;stroke-linecap:butt;stroke-linejoin:miter;stroke:rgb(30%,80%,0%);stroke-opacity:0.4;stroke-miterlimit:10;" d="M 410.472656 375 L 410.472656 364.847656 "/>
<path style="fill:none;stroke-width:3;stroke-linecap:butt;stroke-linejoin:miter;stroke:rgb(30%,80%,0%);stroke-opacity:0.4;stroke-miterlimit:10;" d="M 410.472656 364.847656 L 350 304.375 "/>
<path style="fill:none;stroke-width:3;stroke-linecap:butt;stroke-linejoin:miter;stroke:rgb(30%,80%,0%);stroke-opacity:0.4;stroke-miterlimit:10;" d="M 350 304.375 L 350 275 "/>
<path style="fill:none;stroke-width:3;stroke-linecap:butt;stroke-linejoin:miter;stroke:rgb(30%,80%,0%);stroke-opacity:0.4;stroke-miterlimit:10;" d="M 432.039062 375 L 375 317.960938 "/>
<path style="fill:none;stroke-width:3;stroke-linecap:butt;stroke-linejoin:miter;stroke:rgb(30%,80%,0%);stroke-opacity:0.4;stroke-miterlimit:10;" d="M 375 317.960938 L 375 275 "/>
<path style="fill:none;stroke-width:3;stroke-linecap:butt;stroke-linejoin:miter;stroke:rgb(30%,80%,0%);stroke-opacity:0.4;stroke-miterlimit:10;" d="M 449.617188 375 L 449.617188 324.617188 "/>
<path style="fill:none;stroke-width:3;stroke-linecap:butt;stroke-linejoin:miter;stroke:rgb(30%,80%,0%);stroke-opacity:0.4;stroke-miterlimit:10;" d="M 449.617188 324.617188 L 400 275 "/>
<path style="fill:none;stroke-width:1.5;stroke-linecap:butt;stroke-linejoin:miter;stroke:rgb(0%,30%,80%);stroke-opacity:0.4;stroke-miterlimit:10;" d="M 375 395.335938 L 264.519531 284.855469 "/>
<path style="fill:none;stroke-width:1.5;stroke-linecap:butt;stroke-linejoin:miter;stroke:rgb(0%,30%,80%);stroke-opacity:0.4;stroke-miterlimit:10;" d="M 264.519531 284.855469 L 150 284.855469 "/>
<path style="fill:none;stroke-width:1.5;stroke-linecap:butt;stroke-linejoin:miter;stroke:rgb(0%,30%,80%);stroke-opacity:0.4;stroke-miterlimit:10;" d="M 375 420.882812 L 360.949219 420.882812 "/>
<path style="fill:none;stroke-width:1.5;stroke-linecap:butt;stroke-linejoin:miter;stroke:rgb(0%,30%,80%);stroke-opacity:0.4;stroke-miterlimit:10;" d="M 360.949219 420.882812 L 275 334.933594 "/>
<path style="fill:none;stroke-width:1.5;stroke-linecap:butt;stroke-linejoin:miter;stroke:rgb(0%,30%,80%);stroke-opacity:0.4;stroke-miterlimit:10;" d="M 275 334.933594 L 150 334.933594 "/>
<path style="fill:none;stroke-width:1.5;stroke-linecap:butt;stroke-linejoin:miter;stroke:rgb(0%,30%,80%);stroke-opacity:0.4;stroke-miterlimit:10;" d="M 375 395.335938 L 375 420.882812 "/>
<path style="fill:none;stroke-width:1.5;stroke-linecap:butt;stroke-linejoin:miter;stroke:rgb(0%,30%,80%);stroke-opacity:0.4;stroke-miterlimit:10;" d="M 150 284.855469 L 150 334.933594 "/>
<path style="fill:none;stroke-width:1.5;stroke-linecap:butt;stroke-linejoin:miter;stroke:rgb(0%,30%,80%);stroke-opacity:0.4;stroke-miterlimit:10;" d="M 379.402344 375 L 379.402344 364.480469 "/>
<path style="fill:none;stroke-width:1.5;stroke-linecap:butt;stroke-linejoin:miter;stroke:rgb(0%,30%,80%);stroke-opacity:0.4;stroke-miterlimit:10;" d="M 379.402344 364.480469 L 289.917969 275 "/>
<path style="fill:none;stroke-width:1.5;stroke-linecap:butt;stroke-linejoin:miter;stroke:rgb(0%,30%,80%);stroke-opacity:0.4;stroke-miterlimit:10;" d="M 289.917969 275 L 289.917969 150 "/>
<path style="fill:none;stroke-width:1.5;stroke-linecap:butt;stroke-linejoin:miter;stroke:rgb(0%,30%,80%);stroke-opacity:0.4;stroke-miterlimit:10;" d="M 399.976562 375 L 399.976562 364.847656 "/>
<path style="fill:none;stroke-width:1.5;stroke-linecap:butt;stroke-linejoin:miter;stroke:rgb(0%,30%,80%);stroke-opacity:0.4;stroke-miterlimit:10;" d="M 399.976562 364.847656 L 339.503906 304.375 "/>
<path style="fill:none;stroke-width:1.5;stroke-linecap:butt;stroke-linejoin:miter;stroke:rgb(0%,30%,80%);stroke-opacity:0.4;stroke-miterlimit:10;" d="M 339.503906 304.375 L 339.503906 150 "/>
<path style="fill:none;stroke-width:1.5;stroke-linecap:butt;stroke-linejoin:miter;stroke:rgb(0%,30%,80%);stroke-opacity:0.4;stroke-miterlimit:10;" d="M 379.402344 375 L 399.976562 375 "/>
<path style="fill:none;stroke-width:1.5;stroke-linecap:butt;stroke-linejoin:miter;stroke:rgb(0%,30%,80%);stroke-opacity:0.4;stroke-miterlimit:10;" d="M 289.917969 150 L 339.503906 150 "/>
<path style="fill:none;stroke-width:1.5;stroke-linecap:butt;stroke-linejoin:miter;stroke:rgb(0%,30%,80%);stroke-opacity:0.4;stroke-miterlimit:10;" d="M 419.40625 375 L 419.40625 364.847656 "/>
<path style="fill:none;stroke-width:1.5;stroke-linecap:butt;stroke-linejoin:miter;stroke:rgb(0%,30%,80%);stroke-opacity:0.4;stroke-miterlimit:10;" d="M 419.40625 364.847656 L 361.433594 306.875 "/>
<path style="fill:none;stroke-width:1.5;stroke-linecap:butt;stroke-linejoin:miter;stroke:rgb(0%,30%,80%);stroke-opacity:0.4;stroke-miterlimit:10;" d="M 361.433594 306.875 L 361.433594 275 "/>
<path style="fill:none;stroke-width:1.5;stroke-linecap:butt;stroke-linejoin:miter;stroke:rgb(0%,30%,80%);stroke-opacity:0.4;stroke-miterlimit:10;" d="M 361.433594 275 L 361.433594 150 "/>
<path style="fill:none;stroke-width:1.5;stroke-linecap:butt;stroke-linejoin:miter;stroke:rgb(0%,30%,80%);stroke-opacity:0.4;stroke-miterlimit:10;" d="M 399.976562 375 L 399.976562 364.847656 "/>
<path style="fill:none;stroke-width:1.5;stroke-linecap:butt;stroke-linejoin:miter;stroke:rgb(0%,30%,80%);stroke-opacity:0.4;stroke-miterlimit:10;" d="M 399.976562 364.847656 L 339.503906 304.375 "/>
<path style="fill:none;stroke-width:1.5;stroke-linecap:butt;stroke-linejoin:miter;stroke:rgb(0%,30%,80%);stroke-opacity:0.4;stroke-miterlimit:10;" d="M 339.503906 304.375 L 339.503906 150 "/>
<path style=" stroke:none;fill-rule:nonzero;fill:rgb(0%,30%,80%);fill-opacity:0.4;" d="M 377.5 405.816406 C 377.5 409.148438 372.5 409.148438 372.5 405.816406 C 372.5 402.484375 377.5 402.484375 377.5 405.816406 "/>
<path style=" stroke:none;fill-rule:nonzero;fill:rgb(0%,30%,80%);fill-opacity:0.4;" d="M 277.5 300 C 277.5 303.332031 272.5 303.332031 272.5 300 C 272.5 296.667969 277.5 296.667969 277.5 300 "/>
<path style=" stroke:none;fill-rule:nonzero;fill:rgb(0%,30%,80%);fill-opacity:0.4;" d="M 391.980469 375 C 391.980469 378.332031 386.980469 378.332031 386.980469 375 C 386.980469 371.667969 391.980469 371.667969 391.980469 375 "/>
<path style=" stroke:none;fill-rule:nonzero;fill:rgb(0%,30%,80%);fill-opacity:0.4;" d="M 302.5 275 C 302.5 278.332031 297.5 278.332031 297.5 275 C 297.5 271.667969 302.5 271.667969 302.5 275 "/>
<path style=" stroke:none;fill-rule:nonzero;fill:rgb(0%,30%,80%);fill-opacity:0.4;" d="M 412.972656 375 C 412.972656 378.332031 407.972656 378.332031 407.972656 375 C 407.972656 371.667969 412.972656 371.667969 412.972656 375 "/>
<path style=" stroke:none;fill-rule:nonzero;fill:rgb(0%,30%,80%);fill-opacity:0.4;" d="M 352.5 275 C 352.5 278.332031 347.5 278.332031 347.5 275 C 347.5 271.667969 352.5 271.667969 352.5 275 "/>
<path style=" stroke:none;fill-rule:nonzero;fill:rgb(0%,30%,80%);fill-opacity:0.4;" d="M 434.539062 375 C 434.539062 378.332031 429.539062 378.332031 429.539062 375 C 429.539062 371.667969 434.539062 371.667969 434.539062 375 "/>
<path style=" stroke:none;fill-rule:nonzero;fill:rgb(0%,30%,80%);fill-opacity:0.4;" d="M 377.5 275 C 377.5 278.332031 372.5 278.332031 372.5 275 C 372.5 271.667969 377.5 271.667969 377.5 275 "/>
<path style=" stroke:none;fill-rule:nonzero;fill:rgb(0%,30%,80%);fill-opacity:0.4;" d="M 452.117188 375 C 452.117188 378.332031 447.117188 378.332031 447.117188 375 C 447.117188 371.667969 452.117188 371.667969 452.117188 375 "/>
<path style=" stroke:none;fill-rule:nonzero;fill:rgb(0%,30%,80%);fill-opacity:0.4;" d="M 402.5 275 C 402.5 278.332031 397.5 278.332031 397.5 275 C 397.5 271.667969 402.5 271.667969 402.5 275 "/>
<path style=" stroke:none;fill-rule:nonzero;fill:rgb(0%,30%,80%);fill-opacity:0.4;" d="M 468.75 375 C 468.75 378.332031 463.75 378.332031 463.75 375 C 463.75 371.667969 468.75 371.667969 468.75 375 "/>
<path style=" stroke:none;fill-rule:nonzero;fill:rgb(0%,30%,80%);fill-opacity:0.4;" d="M 427.5 275 C 427.5 278.332031 422.5 278.332031 422.5 275 C 422.5 271.667969 427.5 271.667969 427.5 275 "/>
<path style=" stroke:none;fill-rule:nonzero;fill:rgb(0%,30%,80%);fill-opacity:0.4;" d="M 486.226562 375 C 486.226562 378.332031 481.226562 378.332031 481.226562 375 C 481.226562 371.667969 486.226562 371.667969 486.226562 375 "/>
<path style=" stroke:none;fill-rule:nonzero;fill:rgb(0%,30%,80%);fill-opacity:0.4;" d="M 452.5 275 C 452.5 278.332031 447.5 278.332031 447.5 275 C 447.5 271.667969 452.5 271.667969 452.5 275 "/>
<path style=" stroke:none;fill-rule:nonzero;fill:rgb(0%,30%,80%);fill-opacity:0.4;" d="M 502.125 375 C 502.125 378.332031 497.125 378.332031 497.125 375 C 497.125 371.667969 502.125 371.667969 502.125 375 "/>
<path style=" stroke:none;fill-rule:nonzero;fill:rgb(0%,30%,80%);fill-opacity:0.4;" d="M 552.5 275 C 552.5 278.332031 547.5 278.332031 547.5 275 C 547.5 271.667969 552.5 271.667969 552.5 275 "/>
<path style=" stroke:none;fill-rule:nonzero;fill:rgb(0%,30%,80%);fill-opacity:0.4;" d="M 518.046875 375 C 518.046875 378.332031 513.046875 378.332031 513.046875 375 C 513.046875 371.667969 518.046875 371.667969 518.046875 375 "/>
<path style=" stroke:none;fill-rule:nonzero;fill:rgb(0%,30%,80%);fill-opacity:0.4;" d="M 577.5 275 C 577.5 278.332031 572.5 278.332031 572.5 275 C 572.5 271.667969 577.5 271.667969 577.5 275 "/>
<path style=" stroke:none;fill-rule:nonzero;fill:rgb(0%,30%,80%);fill-opacity:0.4;" d="M 534.382812 375 C 534.382812 378.332031 529.382812 378.332031 529.382812 375 C 529.382812 371.667969 534.382812 371.667969 534.382812 375 "/>
<path style=" stroke:none;fill-rule:nonzero;fill:rgb(0%,30%,80%);fill-opacity:0.4;" d="M 602.5 275 C 602.5 278.332031 597.5 278.332031 597.5 275 C 597.5 271.667969 602.5 271.667969 602.5 275 "/>
<path style=" stroke:none;fill-rule:nonzero;fill:rgb(0%,30%,80%);fill-opacity:0.4;" d="M 551 375 C 551 378.332031 546 378.332031 546 375 C 546 371.667969 551 371.667969 551 375 "/>
<path style=" stroke:none;fill-rule:nonzero;fill:rgb(0%,30%,80%);fill-opacity:0.4;" d="M 627.5 275 C 627.5 278.332031 622.5 278.332031 622.5 275 C 622.5 271.667969 627.5 271.667969 627.5 275 "/>
<path style=" stroke:none;fill-rule:nonzero;fill:rgb(0%,30%,80%);fill-opacity:0.4;" d="M 568.648438 375 C 568.648438 378.332031 563.648438 378.332031 563.648438 375 C 563.648438 371.667969 568.648438 371.667969 568.648438 375 "/>
<path style=" stroke:none;fill-rule:nonzero;fill:rgb(0%,30%,80%);fill-opacity:0.4;" d="M 652.5 275 C 652.5 278.332031 647.5 278.332031 647.5 275 C 647.5 271.667969 652.5 271.667969 652.5 275 "/>
<path style=" stroke:none;fill-rule:nonzero;fill:rgb(0%,30%,80%);fill-opacity:0.4;" d="M 586.613281 375 C 586.613281 378.332031 581.613281 378.332031 581.613281 375 C 581.613281 371.667969 586.613281 371.667969 586.613281 375 "/>
<path style=" stroke:none;fill-rule:nonzero;fill:rgb(0%,30%,80%);fill-opacity:0.4;" d="M 702.5 275 C 702.5 278.332031 697.5 278.332031 697.5 275 C 697.5 271.667969 702.5 271.667969 702.5 275 "/>
<path style=" stroke:none;fill-rule:nonzero;fill:rgb(0%,30%,80%);fill-opacity:0.4;" d="M 611.628906 375 C 611.628906 378.332031 606.628906 378.332031 606.628906 375 C 606.628906 371.667969 611.628906 371.667969 611.628906 375 "/>
<path style=" stroke:none;fill-rule:nonzero;fill:rgb(0%,30%,80%);fill-opacity:0.4;" d="M 727.5 275 C 727.5 278.332031 722.5 278.332031 722.5 275 C 722.5 271.667969 727.5 271.667969 727.5 275 "/>
<path style=" stroke:none;fill-rule:nonzero;fill:rgb(0%,30%,80%);fill-opacity:0.4;" d="M 627.5 390.691406 C 627.5 394.023438 622.5 394.023438 622.5 390.691406 C 622.5 387.359375 627.5 387.359375 627.5 390.691406 "/>
<path style=" stroke:none;fill-rule:nonzero;fill:rgb(0%,30%,80%);fill-opacity:0.4;" d="M 727.5 300 C 727.5 303.332031 722.5 303.332031 722.5 300 C 722.5 296.667969 727.5 296.667969 727.5 300 "/>
<path style=" stroke:none;fill-rule:nonzero;fill:rgb(0%,30%,80%);fill-opacity:0.4;" d="M 627.5 405.046875 C 627.5 408.378906 622.5 408.378906 622.5 405.046875 C 622.5 401.714844 627.5 401.714844 627.5 405.046875 "/>
<path style=" stroke:none;fill-rule:nonzero;fill:rgb(0%,30%,80%);fill-opacity:0.4;" d="M 727.5 350 C 727.5 353.332031 722.5 353.332031 722.5 350 C 722.5 346.667969 727.5 346.667969 727.5 350 "/>
<path style=" stroke:none;fill-rule:nonzero;fill:rgb(0%,30%,80%);fill-opacity:0.4;" d="M 627.5 423.933594 C 627.5 427.265625 622.5 427.265625 622.5 423.933594 C 622.5 420.597656 627.5 420.597656 627.5 423.933594 "/>
<path style=" stroke:none;fill-rule:nonzero;fill:rgb(0%,30%,80%);fill-opacity:0.4;" d="M 727.5 375 C 727.5 378.332031 722.5 378.332031 722.5 375 C 722.5 371.667969 727.5 371.667969 727.5 375 "/>
<path style=" stroke:none;fill-rule:nonzero;fill:rgb(0%,30%,80%);fill-opacity:0.4;" d="M 627.5 442.347656 C 627.5 445.683594 622.5 445.683594 622.5 442.347656 C 622.5 439.015625 627.5 439.015625 627.5 442.347656 "/>
<path style=" stroke:none;fill-rule:nonzero;fill:rgb(0%,30%,80%);fill-opacity:0.4;" d="M 727.5 400 C 727.5 403.332031 722.5 403.332031 722.5 400 C 722.5 396.667969 727.5 396.667969 727.5 400 "/>
<path style=" stroke:none;fill-rule:nonzero;fill:rgb(0%,30%,80%);fill-opacity:0.4;" d="M 627.5 466.265625 C 627.5 469.601562 622.5 469.601562 622.5 466.265625 C 622.5 462.933594 627.5 462.933594 627.5 466.265625 "/>
<path style=" stroke:none;fill-rule:nonzero;fill:rgb(0%,30%,80%);fill-opacity:0.4;" d="M 727.5 425 C 727.5 428.332031 722.5 428.332031 722.5 425 C 722.5 421.667969 727.5 421.667969 727.5 425 "/>
<path style=" stroke:none;fill-rule:nonzero;fill:rgb(0%,30%,80%);fill-opacity:0.4;" d="M 627.5 482.789062 C 627.5 486.121094 622.5 486.121094 622.5 482.789062 C 622.5 479.453125 627.5 479.453125 627.5 482.789062 "/>
<path style=" stroke:none;fill-rule:nonzero;fill:rgb(0%,30%,80%);fill-opacity:0.4;" d="M 727.5 450 C 727.5 453.332031 722.5 453.332031 722.5 450 C 722.5 446.667969 727.5 446.667969 727.5 450 "/>
<path style=" stroke:none;fill-rule:nonzero;fill:rgb(0%,30%,80%);fill-opacity:0.4;" d="M 627.5 498.78125 C 627.5 502.117188 622.5 502.117188 622.5 498.78125 C 622.5 495.449219 627.5 495.449219 627.5 498.78125 "/>
<path style=" stroke:none;fill-rule:nonzero;fill:rgb(0%,30%,80%);fill-opacity:0.4;" d="M 727.5 550 C 727.5 553.332031 722.5 553.332031 722.5 550 C 722.5 546.667969 727.5 546.667969 727.5 550 "/>
<path style=" stroke:none;fill-rule:nonzero;fill:rgb(0%,30%,80%);fill-opacity:0.4;" d="M 627.5 514.648438 C 627.5 517.984375 622.5 517.984375 622.5 514.648438 C 622.5 511.316406 627.5 511.316406 627.5 514.648438 "/>
<path style=" stroke:none;fill-rule:nonzero;fill:rgb(0%,30%,80%);fill-opacity:0.4;" d="M 727.5 575 C 727.5 578.332031 722.5 578.332031 722.5 575 C 722.5 571.667969 727.5 571.667969 727.5 575 "/>
<path style=" stroke:none;fill-rule:nonzero;fill:rgb(0%,30%,80%);fill-opacity:0.4;" d="M 627.5 530.699219 C 627.5 534.035156 622.5 534.035156 622.5 530.699219 C 622.5 527.367188 627.5 527.367188 627.5 530.699219 "/>
<path style=" stroke:none;fill-rule:nonzero;fill:rgb(0%,30%,80%);fill-opacity:0.4;" d="M 727.5 600 C 727.5 603.332031 722.5 603.332031 722.5 600 C 722.5 596.667969 727.5 596.667969 727.5 600 "/>
<path style=" stroke:none;fill-rule:nonzero;fill:rgb(0%,30%,80%);fill-opacity:0.4;" d="M 627.5 546.992188 C 627.5 550.328125 622.5 550.328125 622.5 546.992188 C 622.5 543.660156 627.5 543.660156 627.5 546.992188 "/>
<path style=" stroke:none;fill-rule:nonzero;fill:rgb(0%,30%,80%);fill-opacity:0.4;" d="M 727.5 625 C 727.5 628.332031 722.5 628.332031 722.5 625 C 722.5 621.667969 727.5 621.667969 727.5 625 "/>
<path style=" stroke:none;fill-rule:nonzero;fill:rgb(0%,30%,80%);fill-opacity:0.4;" d="M 627.5 563.992188 C 627.5 567.324219 622.5 567.324219 622.5 563.992188 C 622.5 560.660156 627.5 560.660156 627.5 563.992188 "/>
<path style=" stroke:none;fill-rule:nonzero;fill:rgb(0%,30%,80%);fill-opacity:0.4;" d="M 727.5 650 C 727.5 653.332031 722.5 653.332031 722.5 650 C 722.5 646.667969 727.5 646.667969 727.5 650 "/>
<path style=" stroke:none;fill-rule:nonzero;fill:rgb(0%,30%,80%);fill-opacity:0.4;" d="M 627.5 584.609375 C 627.5 587.945312 622.5 587.945312 622.5 584.609375 C 622.5 581.277344 627.5 581.277344 627.5 584.609375 "/>
<path style=" stroke:none;fill-rule:nonzero;fill:rgb(0%,30%,80%);fill-opacity:0.4;" d="M 727.5 700 C 727.5 703.332031 722.5 703.332031 722.5 700 C 722.5 696.667969 727.5 696.667969 727.5 700 "/>
<path style=" stroke:none;fill-rule:nonzero;fill:rgb(0%,30%,80%);fill-opacity:0.4;" d="M 624.667969 620.421875 C 624.667969 623.757812 619.667969 623.757812 619.667969 620.421875 C 619.667969 617.089844 624.667969 617.089844 624.667969 620.421875 "/>
<path style=" stroke:none;fill-rule:nonzero;fill:rgb(0%,30%,80%);fill-opacity:0.4;" d="M 727.5 725 C 727.5 728.332031 722.5 728.332031 722.5 725 C 722.5 721.667969 727.5 721.667969 727.5 725 "/>
<path style=" stroke:none;fill-rule:nonzero;fill:rgb(0%,30%,80%);fill-opacity:0.4;" d="M 613.21875 625 C 613.21875 628.332031 608.21875 628.332031 608.21875 625 C 608.21875 621.667969 613.21875 621.667969 613.21875 625 "/>
<path style=" stroke:none;fill-rule:nonzero;fill:rgb(0%,30%,80%);fill-opacity:0.4;" d="M 702.5 725 C 702.5 728.332031 697.5 728.332031 697.5 725 C 697.5 721.667969 702.5 721.667969 702.5 725 "/>
<path style=" stroke:none;fill-rule:nonzero;fill:rgb(0%,30%,80%);fill-opacity:0.4;" d="M 598.234375 625 C 598.234375 628.332031 593.234375 628.332031 593.234375 625 C 593.234375 621.667969 598.234375 621.667969 598.234375 625 "/>
<path style=" stroke:none;fill-rule:nonzero;fill:rgb(0%,30%,80%);fill-opacity:0.4;" d="M 652.5 725 C 652.5 728.332031 647.5 728.332031 647.5 725 C 647.5 721.667969 652.5 721.667969 652.5 725 "/>
<path style=" stroke:none;fill-rule:nonzero;fill:rgb(0%,30%,80%);fill-opacity:0.4;" d="M 573.996094 625 C 573.996094 628.332031 568.996094 628.332031 568.996094 625 C 568.996094 621.667969 573.996094 621.667969 573.996094 625 "/>
<path style=" stroke:none;fill-rule:nonzero;fill:rgb(0%,30%,80%);fill-opacity:0.4;" d="M 627.5 725 C 627.5 728.332031 622.5 728.332031 622.5 725 C 622.5 721.667969 627.5 721.667969 627.5 725 "/>
<path style=" stroke:none;fill-rule:nonzero;fill:rgb(0%,30%,80%);fill-opacity:0.4;" d="M 556.386719 625 C 556.386719 628.332031 551.386719 628.332031 551.386719 625 C 551.386719 621.667969 556.386719 621.667969 556.386719 625 "/>
<path style=" stroke:none;fill-rule:nonzero;fill:rgb(0%,30%,80%);fill-opacity:0.4;" d="M 602.5 725 C 602.5 728.332031 597.5 728.332031 597.5 725 C 597.5 721.667969 602.5 721.667969 602.5 725 "/>
<path style=" stroke:none;fill-rule:nonzero;fill:rgb(0%,30%,80%);fill-opacity:0.4;" d="M 539.640625 625 C 539.640625 628.332031 534.640625 628.332031 534.640625 625 C 534.640625 621.667969 539.640625 621.667969 539.640625 625 "/>
<path style=" stroke:none;fill-rule:nonzero;fill:rgb(0%,30%,80%);fill-opacity:0.4;" d="M 577.5 725 C 577.5 728.332031 572.5 728.332031 572.5 725 C 572.5 721.667969 577.5 721.667969 577.5 725 "/>
<path style=" stroke:none;fill-rule:nonzero;fill:rgb(0%,30%,80%);fill-opacity:0.4;" d="M 523.34375 625 C 523.34375 628.332031 518.34375 628.332031 518.34375 625 C 518.34375 621.667969 523.34375 621.667969 523.34375 625 "/>
<path style=" stroke:none;fill-rule:nonzero;fill:rgb(0%,30%,80%);fill-opacity:0.4;" d="M 552.5 725 C 552.5 728.332031 547.5 728.332031 547.5 725 C 547.5 721.667969 552.5 721.667969 552.5 725 "/>
<path style=" stroke:none;fill-rule:nonzero;fill:rgb(0%,30%,80%);fill-opacity:0.4;" d="M 507.363281 625 C 507.363281 628.332031 502.363281 628.332031 502.363281 625 C 502.363281 621.667969 507.363281 621.667969 507.363281 625 "/>
<path style=" stroke:none;fill-rule:nonzero;fill:rgb(0%,30%,80%);fill-opacity:0.4;" d="M 452.5 725 C 452.5 728.332031 447.5 728.332031 447.5 725 C 447.5 721.667969 452.5 721.667969 452.5 725 "/>
<path style=" stroke:none;fill-rule:nonzero;fill:rgb(0%,30%,80%);fill-opacity:0.4;" d="M 491.503906 625 C 491.503906 628.332031 486.503906 628.332031 486.503906 625 C 486.503906 621.667969 491.503906 621.667969 491.503906 625 "/>
<path style=" stroke:none;fill-rule:nonzero;fill:rgb(0%,30%,80%);fill-opacity:0.4;" d="M 427.5 725 C 427.5 728.332031 422.5 728.332031 422.5 725 C 422.5 721.667969 427.5 721.667969 427.5 725 "/>
<path style=" stroke:none;fill-rule:nonzero;fill:rgb(0%,30%,80%);fill-opacity:0.4;" d="M 402.5 725 C 402.5 728.332031 397.5 728.332031 397.5 725 C 397.5 721.667969 402.5 721.667969 402.5 725 "/>
<path style=" stroke:none;fill-rule:nonzero;fill:rgb(0%,30%,80%);fill-opacity:0.4;" d="M 475.367188 625 C 475.367188 628.332031 470.367188 628.332031 470.367188 625 C 470.367188 621.667969 475.367188 621.667969 475.367188 625 "/>
<path style=" stroke:none;fill-rule:nonzero;fill:rgb(0%,30%,80%);fill-opacity:0.4;" d="M 457.644531 625 C 457.644531 628.332031 452.644531 628.332031 452.644531 625 C 452.644531 621.667969 457.644531 621.667969 457.644531 625 "/>
<path style=" stroke:none;fill-rule:nonzero;fill:rgb(0%,30%,80%);fill-opacity:0.4;" d="M 377.5 725 C 377.5 728.332031 372.5 728.332031 372.5 725 C 372.5 721.667969 377.5 721.667969 377.5 725 "/>
<path style=" stroke:none;fill-rule:nonzero;fill:rgb(0%,30%,80%);fill-opacity:0.4;" d="M 440.261719 625 C 440.261719 628.332031 435.261719 628.332031 435.261719 625 C 435.261719 621.667969 440.261719 621.667969 440.261719 625 "/>
<path style=" stroke:none;fill-rule:nonzero;fill:rgb(0%,30%,80%);fill-opacity:0.4;" d="M 352.5 725 C 352.5 728.332031 347.5 728.332031 347.5 725 C 347.5 721.667969 352.5 721.667969 352.5 725 "/>
<path style=" stroke:none;fill-rule:nonzero;fill:rgb(0%,30%,80%);fill-opacity:0.4;" d="M 422.316406 625 C 422.316406 628.332031 417.316406 628.332031 417.316406 625 C 417.316406 621.667969 422.316406 621.667969 422.316406 625 "/>
<path style=" stroke:none;fill-rule:nonzero;fill:rgb(0%,30%,80%);fill-opacity:0.4;" d="M 302.5 725 C 302.5 728.332031 297.5 728.332031 297.5 725 C 297.5 721.667969 302.5 721.667969 302.5 725 "/>
<path style=" stroke:none;fill-rule:nonzero;fill:rgb(0%,30%,80%);fill-opacity:0.4;" d="M 399.085938 625 C 399.085938 628.332031 394.085938 628.332031 394.085938 625 C 394.085938 621.667969 399.085938 621.667969 399.085938 625 "/>
<path style=" stroke:none;fill-rule:nonzero;fill:rgb(0%,30%,80%);fill-opacity:0.4;" d="M 277.5 725 C 277.5 728.332031 272.5 728.332031 272.5 725 C 272.5 721.667969 277.5 721.667969 277.5 725 "/>
<path style=" stroke:none;fill-rule:nonzero;fill:rgb(0%,30%,80%);fill-opacity:0.4;" d="M 377.75 614.988281 C 377.75 618.320312 372.75 618.320312 372.75 614.988281 C 372.75 611.652344 377.75 611.652344 377.75 614.988281 "/>
<path style=" stroke:none;fill-rule:nonzero;fill:rgb(0%,30%,80%);fill-opacity:0.4;" d="M 277.5 700 C 277.5 703.332031 272.5 703.332031 272.5 700 C 272.5 696.667969 277.5 696.667969 277.5 700 "/>
<path style=" stroke:none;fill-rule:nonzero;fill:rgb(0%,30%,80%);fill-opacity:0.4;" d="M 377.5 587.894531 C 377.5 591.226562 372.5 591.226562 372.5 587.894531 C 372.5 584.5625 377.5 584.5625 377.5 587.894531 "/>
<path style=" stroke:none;fill-rule:nonzero;fill:rgb(0%,30%,80%);fill-opacity:0.4;" d="M 277.5 650 C 277.5 653.332031 272.5 653.332031 272.5 650 C 272.5 646.667969 277.5 646.667969 277.5 650 "/>
<path style=" stroke:none;fill-rule:nonzero;fill:rgb(0%,30%,80%);fill-opacity:0.4;" d="M 377.5 569.761719 C 377.5 573.09375 372.5 573.09375 372.5 569.761719 C 372.5 566.429688 377.5 566.429688 377.5 569.761719 "/>
<path style=" stroke:none;fill-rule:nonzero;fill:rgb(0%,30%,80%);fill-opacity:0.4;" d="M 277.5 625 C 277.5 628.332031 272.5 628.332031 272.5 625 C 272.5 621.667969 277.5 621.667969 277.5 625 "/>
<path style=" stroke:none;fill-rule:nonzero;fill:rgb(0%,30%,80%);fill-opacity:0.4;" d="M 377.5 551.925781 C 377.5 555.261719 372.5 555.261719 372.5 551.925781 C 372.5 548.59375 377.5 548.59375 377.5 551.925781 "/>
<path style=" stroke:none;fill-rule:nonzero;fill:rgb(0%,30%,80%);fill-opacity:0.4;" d="M 277.5 600 C 277.5 603.332031 272.5 603.332031 272.5 600 C 272.5 596.667969 277.5 596.667969 277.5 600 "/>
<path style=" stroke:none;fill-rule:nonzero;fill:rgb(0%,30%,80%);fill-opacity:0.4;" d="M 377.578125 537.414062 C 377.578125 540.746094 372.578125 540.746094 372.578125 537.414062 C 372.578125 534.082031 377.578125 534.082031 377.578125 537.414062 "/>
<path style=" stroke:none;fill-rule:nonzero;fill:rgb(0%,30%,80%);fill-opacity:0.4;" d="M 277.5 575 C 277.5 578.332031 272.5 578.332031 272.5 575 C 272.5 571.667969 277.5 571.667969 277.5 575 "/>
<path style=" stroke:none;fill-rule:nonzero;fill:rgb(0%,30%,80%);fill-opacity:0.4;" d="M 377.5 517.675781 C 377.5 521.011719 372.5 521.011719 372.5 517.675781 C 372.5 514.34375 377.5 514.34375 377.5 517.675781 "/>
<path style=" stroke:none;fill-rule:nonzero;fill:rgb(0%,30%,80%);fill-opacity:0.4;" d="M 277.5 550 C 277.5 553.332031 272.5 553.332031 272.5 550 C 272.5 546.667969 277.5 546.667969 277.5 550 "/>
<path style=" stroke:none;fill-rule:nonzero;fill:rgb(0%,30%,80%);fill-opacity:0.4;" d="M 377.5 501.734375 C 377.5 505.070312 372.5 505.070312 372.5 501.734375 C 372.5 498.402344 377.5 498.402344 377.5 501.734375 "/>
<path style=" stroke:none;fill-rule:nonzero;fill:rgb(0%,30%,80%);fill-opacity:0.4;" d="M 277.5 450 C 277.5 453.332031 272.5 453.332031 272.5 450 C 272.5 446.667969 277.5 446.667969 277.5 450 "/>
<path style=" stroke:none;fill-rule:nonzero;fill:rgb(0%,30%,80%);fill-opacity:0.4;" d="M 377.5 485.859375 C 377.5 489.191406 372.5 489.191406 372.5 485.859375 C 372.5 482.527344 377.5 482.527344 377.5 485.859375 "/>
<path style=" stroke:none;fill-rule:nonzero;fill:rgb(0%,30%,80%);fill-opacity:0.4;" d="M 277.5 425 C 277.5 428.332031 272.5 428.332031 272.5 425 C 272.5 421.667969 277.5 421.667969 277.5 425 "/>
<path style=" stroke:none;fill-rule:nonzero;fill:rgb(0%,30%,80%);fill-opacity:0.4;" d="M 377.5 469.660156 C 377.5 472.996094 372.5 472.996094 372.5 469.660156 C 372.5 466.328125 377.5 466.328125 377.5 469.660156 "/>
<path style=" stroke:none;fill-rule:nonzero;fill:rgb(0%,30%,80%);fill-opacity:0.4;" d="M 277.5 400 C 277.5 403.332031 272.5 403.332031 272.5 400 C 272.5 396.667969 277.5 396.667969 277.5 400 "/>
<path style=" stroke:none;fill-rule:nonzero;fill:rgb(0%,30%,80%);fill-opacity:0.4;" d="M 377.5 453.25 C 377.5 456.582031 372.5 456.582031 372.5 453.25 C 372.5 449.914062 377.5 449.914062 377.5 453.25 "/>
<path style=" stroke:none;fill-rule:nonzero;fill:rgb(0%,30%,80%);fill-opacity:0.4;" d="M 277.5 375 C 277.5 378.332031 272.5 378.332031 272.5 375 C 272.5 371.667969 277.5 371.667969 277.5 375 "/>
<path style=" stroke:none;fill-rule:nonzero;fill:rgb(0%,30%,80%);fill-opacity:0.4;" d="M 377.5 435.949219 C 377.5 439.28125 372.5 439.28125 372.5 435.949219 C 372.5 432.613281 377.5 432.613281 377.5 435.949219 "/>
<path style=" stroke:none;fill-rule:nonzero;fill:rgb(0%,30%,80%);fill-opacity:0.4;" d="M 277.5 350 C 277.5 353.332031 272.5 353.332031 272.5 350 C 272.5 346.667969 277.5 346.667969 277.5 350 "/>
<path style=" stroke:none;fill-rule:nonzero;fill:rgb(0%,30%,80%);fill-opacity:0.4;" d="M 377.5 384.855469 C 377.5 388.1875 372.5 388.1875 372.5 384.855469 C 372.5 381.523438 377.5 381.523438 377.5 384.855469 "/>
<path style=" stroke:none;fill-rule:nonzero;fill:rgb(0%,30%,80%);fill-opacity:0.4;" d="M 277.5 275 C 277.5 278.332031 272.5 278.332031 272.5 275 C 272.5 271.667969 277.5 271.667969 277.5 275 "/>
<path style="fill:none;stroke-width:1;stroke-linecap:butt;stroke-linejoin:miter;stroke:rgb(80%,0%,80%);stroke-opacity:0.6;stroke-miterlimit:10;" d="M 375 625 L 625 625 L 625 375 L 375 375 Z M 375 625 "/>
<path style="fill:none;stroke-width:1;stroke-linecap:butt;stroke-linejoin:miter;stroke:rgb(80%,0%,0%);stroke-opacity:0.6;stroke-miterlimit:10;" d="M 150 850 L 850 850 L 850 150 L 150 150 Z M 150 850 "/>
</g>
</svg>
